<svg width="11" height="7" viewBox="0 0 11 7" fill="none" xmlns="http://www.w3.org/2000/svg">
<path id="Shape" fill-rule="evenodd" clip-rule="evenodd" d="M6.52738 6.55528L10.5274 2.55528C10.7074 2.37528 10.8174 2.12528 10.8174 1.84528C10.8174 1.29528 10.3674 0.845276 9.81738 0.845276C9.53738 0.845276 9.28738 0.955276 9.10738 1.13528L5.81738 4.43528L2.52738 1.14528C2.34738 0.955276 2.09738 0.845275 1.81738 0.845275C1.26738 0.845275 0.817383 1.29528 0.817383 1.84528C0.817383 2.12528 0.927383 2.37528 1.10738 2.55528L5.10738 6.55528C5.28738 6.73528 5.53738 6.84528 5.81738 6.84528C6.09738 6.84528 6.34738 6.73528 6.52738 6.55528Z" fill="white"/>
</svg>
