<svg width="612" height="662" viewBox="0 0 612 662" fill="none" xmlns="http://www.w3.org/2000/svg">
<path d="M104.971 22.1331C106.089 23.6331 103.001 27.8221 98.078 31.4891C93.155 35.1561 88.255 36.9081 87.137 35.4061C86.019 33.9041 89.106 29.7161 94.03 26.0501C98.954 22.3841 103.849 20.6321 104.971 22.1331Z" fill="white"/>
<path d="M99.2754 22.7571C99.2754 24.1746 98.8551 25.5603 98.0676 26.7389C97.28 27.9175 96.1607 28.8361 94.8511 29.3785C93.5415 29.921 92.1005 30.0629 90.7102 29.7864C89.3199 29.5098 88.0429 28.8272 87.0406 27.8249C86.0383 26.8226 85.3557 25.5456 85.0791 24.1553C84.8026 22.765 84.9445 21.324 85.487 20.0144C86.0294 18.7048 86.948 17.5855 88.1266 16.7979C89.3052 16.0104 90.6909 15.5901 92.1084 15.5901C94.0092 15.5901 95.8322 16.3452 97.1762 17.6893C98.5203 19.0333 99.2754 20.8563 99.2754 22.7571Z" fill="white"/>
<path d="M505.189 23.2571C505.189 24.6746 505.61 26.0603 506.397 27.2389C507.185 28.4175 508.304 29.3361 509.614 29.8785C510.923 30.421 512.364 30.5629 513.755 30.2864C515.145 30.0098 516.422 29.3272 517.424 28.3249C518.427 27.3226 519.109 26.0456 519.386 24.6553C519.662 23.265 519.52 21.824 518.978 20.5144C518.435 19.2048 517.517 18.0855 516.338 17.2979C515.16 16.5104 513.774 16.0901 512.356 16.0901C510.456 16.0901 508.633 16.8452 507.289 18.1893C505.945 19.5333 505.189 21.3563 505.189 23.2571Z" fill="white"/>
<path d="M95.1353 35.8901C95.1353 35.8901 57.7753 81.5901 44.7753 111.09C44.7753 111.09 37.6083 127.424 37.6083 130.424C37.6083 133.424 36.0253 140.09 42.5253 140.59C49.0253 141.09 39.2753 156.84 32.2753 165.84C25.2753 174.84 21.2753 195.84 19.0253 214.09C16.7753 232.34 17.2753 270.34 27.5253 278.34C37.7753 286.34 41.5253 285.09 42.2753 298.09C43.0253 311.09 41.5253 328.09 51.2753 338.59C61.0253 349.09 60.0253 365.09 59.7753 368.34C59.5253 371.59 68.7753 347.59 65.5253 330.34C62.2753 313.09 58.5253 310.84 64.5253 288.59C70.5253 266.34 70.2753 265.84 65.0253 259.84C59.7753 253.84 54.7753 251.34 67.5253 233.84C80.2753 216.34 100.275 191.34 100.025 181.84C99.7753 172.34 95.2753 169.59 92.0253 167.09C88.7753 164.59 87.2753 164.84 93.2753 163.59C99.2753 162.34 139.275 134.09 154.525 109.84C139.775 102.09 121.525 97.3401 95.1353 35.8901Z" stroke="white" stroke-width="3"/>
<path d="M118.108 79.9241C118.108 79.9241 125.442 92.7561 116.442 147.257C101.442 158.924 99.1084 160.59 99.1084 160.59C99.1084 160.59 104.775 132.924 104.108 108.59C103.441 84.2561 93.6084 37.2571 93.6084 37.2571L95.1354 35.8901L118.108 79.9241Z" fill="white"/>
<path d="M78.2754 58.0901C78.2754 58.0901 92.2754 100.59 88.7754 164.09C91.9513 166.933 94.8021 170.119 97.2754 173.59C95.7159 172.048 93.8225 170.885 91.7417 170.191C89.6609 169.498 87.4484 169.292 85.2754 169.59C77.7754 170.59 71.7754 174.09 70.7754 159.59C69.7754 145.09 77.2754 109.09 59.7754 84.5901C72.2754 65.0901 78.2754 58.0901 78.2754 58.0901Z" fill="white"/>
<path d="M45.7747 108.09C45.7747 108.09 57.2747 119.09 59.7747 138.59C62.2747 158.09 60.7747 179.59 76.2747 181.59C91.7747 183.59 100.025 181.84 100.025 181.84L91.2747 202.59C91.2747 202.59 70.2747 206.59 62.2747 187.59C54.2747 168.59 58.7747 143.59 42.5247 140.59C35.2747 138.09 37.6077 130.424 37.6077 130.424L45.7747 108.09Z" fill="white"/>
<path d="M40.2754 154.59C40.2754 154.59 49.2754 160.59 51.2754 185.59C53.2754 210.59 78.2754 219.09 78.2754 219.09L64.2754 238.59C64.2754 238.59 51.7754 226.59 48.7754 215.59C45.7754 204.59 46.7754 181.09 24.7754 183.09C26.7754 173.59 36.7754 159.59 40.2754 154.59Z" fill="white"/>
<path d="M21.2754 195.59C21.2754 195.59 33.7754 211.59 39.2754 224.09C44.7754 236.59 61.7754 257.59 61.7754 257.59L68.2754 264.09L68.7754 272.59C68.7754 272.59 61.2754 268.09 54.2754 263.59C47.2754 259.09 43.7754 253.09 39.2754 247.09C34.7754 241.09 28.7754 235.59 17.7754 230.09C18.2407 218.53 19.4095 207.008 21.2754 195.59Z" fill="white"/>
<path d="M18.2754 244.59C18.2754 244.59 30.2754 261.09 34.7754 263.59C39.2754 266.09 54.2754 270.59 58.2754 278.09C62.2754 285.59 64.7754 290.59 64.7754 290.59L61.2754 308.59C61.2754 308.59 56.7754 294.09 49.7754 289.59C42.7754 285.09 25.7754 279.09 23.7754 274.59C21.7754 270.09 18.2754 244.59 18.2754 244.59Z" fill="white"/>
<path d="M41.2754 296.59C41.2754 296.59 49.7754 310.59 54.2754 316.59C58.7754 322.59 66.2754 334.59 66.2754 334.59L64.7754 351.59C64.7754 351.59 63.7754 339.09 57.7754 335.09C51.7754 331.09 43.2754 327.09 43.2754 325.09C43.2754 323.09 41.2754 296.59 41.2754 296.59Z" fill="white"/>
<path d="M302.775 404.424C374.204 404.424 432.108 346.52 432.108 275.091C432.108 203.662 374.204 145.758 302.775 145.758C231.347 145.758 173.442 203.662 173.442 275.091C173.442 346.52 231.347 404.424 302.775 404.424Z" stroke="white" stroke-width="6"/>
<path d="M422.041 275.426C422.041 298.948 415.066 321.942 401.998 341.5C388.93 361.058 370.356 376.301 348.625 385.303C326.893 394.304 302.981 396.66 279.911 392.071C256.841 387.482 235.65 376.156 219.017 359.523C202.384 342.891 191.057 321.7 186.468 298.63C181.879 275.56 184.234 251.647 193.235 229.916C202.236 208.184 217.48 189.61 237.037 176.542C256.595 163.473 279.589 156.498 303.111 156.498C318.729 156.498 334.194 159.574 348.623 165.551C363.052 171.527 376.163 180.287 387.206 191.331C398.25 202.374 407.01 215.485 412.987 229.914C418.964 244.343 422.041 259.808 422.041 275.426Z" stroke="white" stroke-width="2"/>
<path d="M449.275 110.924C449.275 110.924 475.109 98.7581 489.109 78.0901C511.284 45.3561 511.775 35.9231 511.775 35.9231C511.775 35.9231 537.775 77.4231 551.775 77.9231C565.775 78.4231 568.275 78.4231 572.275 100.923C576.275 123.423 582.807 176.282 592.442 196.756C597.775 208.089 591.442 226.089 588.775 233.423C587.694 236.394 577.442 262.089 590.775 283.423C611.207 316.115 571.775 389.423 571.775 389.423C571.775 389.423 580.442 331.923 566.442 307.423C552.442 282.923 526.275 259.423 526.275 244.423C526.275 229.423 532.275 217.423 530.275 208.423C528.275 199.423 525.775 197.423 523.275 178.423C520.775 159.423 519.275 148.423 503.775 147.923C488.275 147.423 478.775 144.424 449.275 110.924Z" stroke="white" stroke-width="3"/>
<path d="M483.333 86.3091C486.7 91.6951 494.79 98.4581 499.801 90.7321C503.809 84.5521 498.633 76.9321 494.116 72.5831C492.026 70.5701 488.84 73.7481 490.934 75.7641C493.65 78.3801 496.64 82.1111 496.767 86.0211C496.887 89.6891 493.361 90.3441 490.992 88.4331C489.501 87.1831 488.226 85.6966 487.217 84.0331C485.683 81.5791 481.789 83.8331 483.333 86.3041V86.3091Z" fill="white"/>
<path d="M518.967 100.29C516.944 97.5741 513.549 92.1171 509.775 91.9261C506.06 91.7371 502.575 93.4201 501.169 96.9461C498.717 103.086 505.521 110.181 510.789 111.932C512.186 112.304 513.662 112.26 515.035 111.807C516.408 111.353 517.619 110.509 518.52 109.378C520.773 106.687 520.255 103.263 518.967 100.29C517.817 97.6331 513.941 99.9271 515.083 102.561C515.983 104.642 515.749 106.796 513.41 107.604C511.581 108.235 509.473 106.323 508.289 105.204C506.481 103.504 503.3 98.2741 506.981 96.8331C509.139 95.9871 509.461 96.3761 510.605 97.4191C512.256 98.9869 513.755 100.707 515.083 102.557C516.794 104.857 520.704 102.617 518.967 100.29Z" fill="white"/>
<path d="M539.797 118.39C537.833 115.506 535.297 110.849 531.833 109.616C530.881 109.235 529.857 109.064 528.833 109.116C527.808 109.167 526.807 109.44 525.897 109.915C524.988 110.39 524.192 111.056 523.565 111.867C522.937 112.679 522.492 113.617 522.261 114.616C520.999 120.209 525.499 127.248 530.861 128.99C537.383 131.109 541.967 124.898 540.025 118.932C539.13 116.185 534.784 117.361 535.685 120.132C536.316 122.068 536.356 124.008 534.143 124.791C532.28 125.449 530.491 123.744 529.305 122.562C527.805 121.062 524.505 115.213 527.863 113.887C531.489 112.457 534.263 118.248 535.913 120.67C537.536 123.04 541.437 120.79 539.797 118.39Z" fill="white"/>
<path d="M552.196 143.325C551.427 139.814 550.885 134.765 548.465 131.961C545.14 128.107 540.419 129.444 538.435 133.795C536.07 138.984 538.035 146.213 541.666 150.361C542.482 151.233 543.547 151.833 544.716 152.078C545.885 152.324 547.101 152.204 548.2 151.734C551.232 150.31 552.028 146.988 552.276 143.924C552.51 141.024 548.008 141.052 547.776 143.924C547.676 145.169 547.289 148.538 545.232 147.518C544.069 146.941 543.366 144.846 542.95 143.746C542.353 142.132 542.012 140.434 541.941 138.714C541.886 137.569 542.29 134.14 543.809 134.065C546.437 133.935 547.459 142.707 547.856 144.522C548.477 147.356 552.815 146.154 552.196 143.325Z" fill="white"/>
<path d="M561.275 174.257C560.929 169.842 560.193 165.467 559.075 161.182C557.741 156.755 552.732 156.891 551.028 161.004C548.828 166.322 548.619 175.276 551.238 180.463C552.256 182.479 554.503 184.054 556.763 182.723C559.802 180.935 560.924 177.59 561.275 174.257C561.575 171.372 557.074 171.402 556.774 174.257C556.666 175.283 555.674 180.028 554.803 177.127C554.302 175.105 554.07 173.024 554.114 170.941C554.08 169.564 554.144 168.185 554.244 166.812C554.341 165.829 554.514 164.855 554.762 163.899C554.859 163.586 554.956 163.274 555.052 162.962C555.767 162.185 555.617 161.89 554.603 162.079C555.732 162.994 555.812 167.339 556.025 168.679C556.317 170.53 556.561 172.39 556.774 174.252C557.1 177.106 561.604 177.137 561.275 174.257Z" fill="white"/>
<path d="M493.667 88.8901C496.867 93.0711 500.8 97.4421 505.64 99.6971C508.253 100.914 510.54 97.0361 507.912 95.8111C505.3 94.4679 502.951 92.6651 500.978 90.4891C500.07 89.5671 499.21 88.5961 498.373 87.6101C498.104 87.2931 497.84 86.9701 497.58 86.6461C497.371 86.3871 497.209 86.1711 497.551 86.6181C495.813 84.3481 491.902 86.5851 493.667 88.8901Z" fill="white"/>
<path d="M514.14 108.7C518.592 111.429 523.018 114.219 527.306 117.2C529.696 118.861 531.942 114.958 529.578 113.314C525.29 110.333 520.864 107.543 516.412 104.814C513.93 103.293 511.671 107.187 514.14 108.7Z" fill="white"/>
<path d="M533.186 124.514C536.352 127.842 539.089 131.552 541.332 135.56C542.758 138.086 546.647 135.819 545.217 133.288C542.777 128.95 539.804 124.934 536.368 121.333C534.354 119.233 531.175 122.423 533.186 124.514Z" fill="white"/>
<path d="M546.184 148.681C549.871 152.67 551.684 158.481 552.605 163.688C553.105 166.542 557.445 165.329 556.945 162.488C555.887 156.495 553.58 150.055 549.366 145.495C547.393 143.359 544.218 146.55 546.184 148.677V148.681Z" fill="white"/>
<path d="M553.855 176.49C553.018 182.111 554.546 188.178 556.105 193.52C556.917 196.299 561.259 195.115 560.445 192.32C559.313 188.672 558.57 184.915 558.228 181.111C558.163 180.163 558.147 179.211 558.18 178.261C558.188 177.99 558.372 176.497 558.195 177.683C558.618 174.846 554.282 173.625 553.855 176.483V176.49Z" fill="white"/>
<path d="M539.149 165.844C539.149 165.844 538.037 162.985 536.428 163.1C536.861 167.206 536.908 167.639 537.181 170.23C537.454 172.821 537.481 177.635 538.537 186.117C539.593 194.599 543.298 215.825 539.59 235.947C537.148 238.932 535.366 240.447 535.496 234.018C535.626 227.589 537.061 196.718 535.311 192.401C533.561 188.084 530.257 185.989 528.457 185.836C531.18 189.603 532.726 194.092 532.9 198.736C532.985 201.059 532.582 231.007 532.856 233.599C533.13 236.191 533.519 244.459 537.623 240.336C538.292 245.144 538.484 245.412 540.342 247.675C542.2 249.938 540.636 255.08 539.325 258.004C538.014 260.928 543.397 271.016 544.273 273.175C545.149 275.334 550.648 279.8 553.773 273.925C555.696 269.106 549.382 272.996 549.023 272.675C548.664 272.354 545.398 272.425 541.553 263.722C545.113 257.547 546.472 250.459 545.695 247.706C544.918 244.953 541.333 241.725 541.333 241.725C541.333 241.725 545.65 238.084 546.771 239.485C547.892 240.886 549.127 243.368 547.785 247.536C549.719 248.986 553.791 250.699 554.568 253.452C555.345 256.205 557.898 254.304 557.939 251.601C557.853 250.234 557.398 248.915 556.621 247.785C555.845 246.656 554.777 245.759 553.531 245.188C551.519 244.548 552.077 243.68 552.671 240.11C553.265 236.54 551.878 226.494 542.852 236.153C543.546 231.987 550.677 208.985 547.31 192.459C549.537 188.99 551.917 182.734 552.148 180.3C552.379 177.866 550.898 169.175 550.898 169.175C550.898 169.175 549.362 185.801 546.555 189.921C545.498 186.032 543.599 181.88 543.507 181.015C543.415 180.15 542.945 174.153 542.945 174.153C542.945 174.153 546.979 169.38 547.612 167.701C548.245 166.022 549.519 161.201 548.336 162.292C547.153 163.383 545.002 166.038 544.141 165.554C543.28 165.07 542.119 163.238 539.149 165.844Z" fill="white"/>
<path d="M564.949 133.446C565.158 130.843 565.704 128.279 566.574 125.817C567.007 129.924 567.055 130.356 567.329 132.949C567.603 135.542 568.493 139.376 569.262 148.182C570.031 156.988 571.125 181.147 577.849 189.55C580.334 186.998 582.026 184.616 580.708 179.809C579.39 175.002 573.508 153.576 572.991 146.653C572.518 141.031 573.298 135.374 575.276 130.09C574.609 140.59 575.714 144.802 576.087 146.802C576.46 148.802 582.435 171.584 582.709 174.177C582.983 176.77 584.239 184.063 580.228 189.055C580.608 194.187 580.509 194.782 579.472 200.3C578.435 205.818 580.639 206.726 582.224 206.395C583.809 206.064 583.501 223.095 583.224 226.554C582.947 230.013 581.636 240.667 576.148 243.933C573.723 244 577.718 237.333 577.94 236.359C580.431 229.647 581.657 222.531 581.556 215.372C577.584 217.658 575.174 214.806 575.268 211.072C575.362 207.338 577.568 197.602 577.568 197.602C577.568 197.602 573.479 203.402 572.861 206.756C572.243 210.11 571.74 214.547 573.585 215.133C572.334 220.165 569.45 229.69 569.359 233.42C569.268 237.15 566.896 240.779 566.359 238.729C565.822 236.679 567.153 229.374 568.619 224.829C570.085 220.284 569.479 220.721 568.335 219.104C567.191 217.487 566.388 206.785 575.323 196.263C573.988 194.378 564.023 190.581 563.555 170.8C561.145 172.541 558.447 174.6 557.805 173.149C557.235 171.316 556.82 169.437 556.564 167.534C556.564 167.534 560.68 169.677 563.67 167.288C563.77 162.098 564.479 155.013 564.388 154.15C564.297 153.287 563.536 147.612 563.536 147.612C563.536 147.612 559.456 151.953 558.636 151.903C557.816 151.853 555.905 150.619 557.043 149.103C558.181 147.587 560.376 145.357 560.962 143.247C561.548 141.137 562.12 137.35 564.949 133.446Z" fill="white"/>
<path d="M551.775 195.549C551.775 195.549 562.108 189.591 564.608 187.257C567.108 184.923 565.108 191.757 565.108 191.757C566.241 195.809 566.925 199.973 567.15 204.174C567.275 221.924 564.275 226.424 558.608 228.757C558.608 228.757 551.095 231.424 550.442 217.757C549.9 206.424 552.275 200.549 552.275 200.549C552.275 200.549 549.275 196.549 551.775 195.549Z" fill="white"/>
<path d="M547.025 194.424C547.025 194.424 550.65 196.424 553.025 196.424C555.4 196.424 552.275 199.299 552.275 199.299C550.376 198.377 548.539 197.333 546.775 196.174L545.775 195.299L547.15 193.799L547.025 194.424Z" fill="white"/>
<path d="M563.4 188.549C564.592 184.256 565.387 179.863 565.775 175.424C566.192 168.615 568.15 184.549 564.775 190.424C560.972 197.043 560.043 198.084 563.4 188.549Z" fill="white"/>
<path d="M47.0012 612.341C46.909 615.665 47.1007 618.991 47.5742 622.282C47.7856 623.851 48.4656 625.32 49.5252 626.496C50.678 627.517 52.0186 628.303 53.4722 628.811C55.526 629.536 57.6483 630.05 59.8062 630.345L59.7602 632.045L49.2042 631.907C46.7862 631.877 44.5529 631.862 42.5042 631.862C38.6782 631.862 32.9712 631.923 25.3832 632.045H25.1082V630.345C27.2878 630.051 29.432 629.537 31.5082 628.811C32.9599 628.314 34.2951 627.526 35.4322 626.496C36.5201 625.333 37.2191 623.86 37.4322 622.282C37.9052 618.991 38.0969 615.665 38.0052 612.341V569.713H31.4872C25.6125 569.713 21.3285 570.616 18.6352 572.421C15.9419 574.226 13.9989 577.393 12.8062 581.921L11.2002 581.646L12.9902 563.516H14.0902L16.9362 566.545C19.8742 566.545 24.2039 566.56 29.9252 566.591C35.6465 566.622 39.9305 566.637 42.7772 566.637C45.5925 566.637 49.8152 566.622 55.4452 566.591C61.0752 566.56 65.2825 566.545 68.0672 566.545L71.1882 563.516H71.9222L73.5292 581.829L72.0142 582.15C70.9135 577.683 68.9935 574.494 66.2542 572.581C63.5149 570.668 59.4532 569.712 54.0692 569.713H47.0012V612.341Z" fill="white"/>
<path d="M73.9864 632.043L73.9404 630.343C76.7864 630.221 78.6758 629.641 79.6084 628.603C80.5411 627.565 81.0078 624.865 81.0084 620.503L80.9174 577.242C80.9762 575.763 80.7979 574.283 80.3894 572.86C80.0136 571.83 79.3911 570.908 78.5764 570.174L76.1434 568.109V567.282L87.6644 562.601L88.6284 563.06L88.0774 594.726C90.8661 592.786 93.8488 591.141 96.9774 589.818C99.2679 588.812 101.729 588.251 104.229 588.166C108.605 588.166 111.802 589.403 113.822 591.878C115.842 594.353 116.928 598.386 117.08 603.978L117.494 621.651C117.616 625.436 118.121 627.764 119.008 628.633C119.896 629.502 121.701 630.075 124.424 630.35V632.05C123.262 631.99 121.954 631.944 120.5 631.912C119.047 631.88 116.821 631.865 113.822 631.867C110.822 631.867 108.543 631.882 106.983 631.912C105.424 631.942 103.986 631.988 102.668 632.05L102.622 630.35C105.53 630.045 107.465 629.404 108.429 628.427C109.393 627.45 109.875 625.435 109.874 622.384C109.874 622.14 109.859 621.682 109.829 621.01C109.799 620.338 109.784 619.805 109.783 619.41L109.599 608.51C109.477 603.168 108.49 599.3 106.639 596.905C104.789 594.51 101.889 593.312 97.9394 593.31C96.3566 593.319 94.7847 593.574 93.2804 594.066C91.5199 594.656 89.8334 595.447 88.2544 596.423V620.414C88.2544 624.444 88.7518 627.077 89.7464 628.314C90.7411 629.551 92.7224 630.23 95.6904 630.351L95.6444 632.051C94.3591 631.991 92.9514 631.945 91.4214 631.913C89.8914 631.881 87.6121 631.866 84.5834 631.868C81.6454 631.868 79.4421 631.883 77.9734 631.913C76.5048 631.943 75.1758 631.986 73.9864 632.043Z" fill="white"/>
<path d="M160.842 620.752L162.173 621.9C160.053 625.132 157.248 627.859 153.958 629.886C150.946 631.679 147.502 632.615 143.998 632.594C141.354 632.641 138.731 632.119 136.307 631.061C133.884 630.004 131.716 628.437 129.953 626.467C126.127 622.305 124.084 616.81 124.261 611.159C124.108 605.139 126.287 599.294 130.343 594.842C132.175 592.72 134.449 591.023 137.005 589.869C139.561 588.716 142.338 588.134 145.143 588.164C149.825 588.164 153.596 589.48 156.457 592.112C159.317 594.744 160.87 598.339 161.116 602.898C155.883 602.714 150.918 602.576 146.222 602.485C141.525 602.394 137.065 602.348 132.842 602.347C132.63 603.192 132.476 604.051 132.383 604.917C132.289 605.817 132.243 606.721 132.246 607.625C132.069 612.607 133.773 617.473 137.019 621.257C138.473 622.987 140.295 624.37 142.351 625.307C144.408 626.244 146.647 626.711 148.907 626.673C151.18 626.692 153.427 626.181 155.47 625.182C157.568 624.124 159.404 622.611 160.842 620.752ZM151.617 600.006C151.226 597.387 150.166 594.913 148.542 592.822C147.907 592.035 147.102 591.401 146.188 590.968C145.274 590.535 144.274 590.315 143.263 590.322C142.08 590.323 140.91 590.566 139.825 591.036C138.739 591.506 137.762 592.192 136.952 593.054C135.01 595.108 133.709 597.684 133.211 600.466L151.617 600.006Z" fill="white"/>
<path d="M259.018 624.709V626.409C254.248 628.61 249.285 630.368 244.193 631.659C239.763 632.772 235.216 633.348 230.649 633.374C219.358 633.374 210.285 630.322 203.431 624.217C196.576 618.112 193.149 610.073 193.15 600.098C193.094 595.324 194.048 590.592 195.95 586.213C197.894 581.902 200.762 578.071 204.35 574.991C207.98 571.798 212.197 569.343 216.766 567.762C221.662 566.088 226.807 565.258 231.981 565.307C235.78 565.315 239.572 565.638 243.318 566.271C247.272 566.938 251.169 567.904 254.976 569.162C254.822 571.672 254.692 574.311 254.586 577.08C254.479 579.849 254.395 582.809 254.333 585.961H252.911C251.503 580.028 248.909 575.491 245.131 572.352C241.352 569.213 236.556 567.646 230.742 567.652C222.725 567.652 216.253 570.337 211.327 575.707C206.4 581.077 203.937 588.168 203.937 596.981C203.918 601.259 204.705 605.502 206.255 609.489C207.801 613.453 210.082 617.089 212.979 620.205C215.993 623.441 219.694 625.958 223.811 627.573C228.205 629.322 232.897 630.202 237.626 630.165C240.686 630.165 242.728 629.692 243.754 628.745C244.779 627.798 245.291 625.767 245.291 622.651V613.67C245.291 609.944 244.403 607.311 242.629 605.77C240.854 604.229 237.549 603.259 232.715 602.86V601.16C235.224 601.208 237.68 601.25 240.082 601.287C242.484 601.324 244.878 601.342 247.265 601.343C249.713 601.343 252.122 601.328 254.494 601.297C256.865 601.266 259.183 601.221 261.448 601.16L261.494 602.86C258.648 603.227 256.743 604.045 255.779 605.312C254.815 606.579 254.333 609.26 254.333 613.353V624.717L259.018 624.709Z" fill="white"/>
<path d="M272.638 606.862V582.738C272.737 579.961 272.56 577.18 272.11 574.438C271.859 573.169 271.188 572.022 270.205 571.181C269.024 570.268 267.686 569.577 266.258 569.14C264.542 568.629 262.77 568.328 260.98 568.245V566.545C262.968 566.607 265.095 566.653 267.359 566.683C269.624 566.713 273.051 566.728 277.641 566.729C282.292 566.729 285.773 566.714 288.083 566.683C290.394 566.652 292.543 566.606 294.531 566.545L294.577 568.245C289.437 568.399 285.971 569.424 284.177 571.319C282.384 573.214 281.489 576.99 281.492 582.647V605.947C281.383 609.508 281.73 613.068 282.525 616.541C283.142 618.89 284.333 621.048 285.99 622.823C287.983 624.894 290.436 626.466 293.15 627.41C296.289 628.52 299.599 629.064 302.927 629.016C306.787 629.17 310.62 628.325 314.057 626.563C317.126 624.728 319.542 621.977 320.965 618.697C321.989 616.205 322.602 613.564 322.778 610.876C323.129 607.467 323.305 602.033 323.305 594.576C323.403 589.509 323.211 584.441 322.731 579.396C322.549 577.17 321.884 575.009 320.782 573.066C319.655 571.456 318.072 570.218 316.237 569.512C313.87 568.654 311.367 568.226 308.848 568.25V566.55C310.53 566.612 312.32 566.658 314.217 566.688C316.115 566.718 318.991 566.733 322.846 566.734C326.734 566.734 329.634 566.719 331.546 566.688C333.459 566.657 335.226 566.611 336.846 566.55V568.25H336.663C332.959 568.25 330.419 569.672 329.043 572.516C327.667 575.36 326.979 582.531 326.977 594.028C326.977 595.005 326.962 596.472 326.932 598.428C326.809 609.07 325.922 616.303 324.27 620.128C322.422 624.479 319.087 628.031 314.86 630.15C310.486 632.427 305.039 633.566 298.52 633.567C293.963 633.677 289.423 632.962 285.12 631.456C281.691 630.251 278.691 628.066 276.491 625.172C275.081 623.203 274.075 620.974 273.531 618.614C272.815 614.74 272.516 610.8 272.638 606.862Z" fill="white"/>
<path d="M340.367 632.043V630.343C345.14 630.069 348.368 629.084 350.051 627.389C351.735 625.694 352.576 621.931 352.576 616.1V582.44C352.576 576.64 351.75 572.9 350.097 571.219C348.445 569.538 345.201 568.546 340.367 568.242V566.542C342.263 566.542 345.101 566.573 348.881 566.634C352.661 566.695 355.484 566.726 357.349 566.726C359.216 566.726 361.993 566.695 365.68 566.634C369.368 566.573 372.114 566.542 373.918 566.542V568.242C369.084 568.548 365.841 569.556 364.188 571.265C362.536 572.974 361.709 576.699 361.709 582.44V616.1C361.709 621.9 362.543 625.663 364.209 627.389C365.876 629.115 369.112 630.1 373.916 630.343L373.871 632.043C369.219 631.951 365.753 631.898 363.471 631.883C361.19 631.868 359.057 631.861 357.071 631.86C355.081 631.86 352.948 631.868 350.671 631.883C348.395 631.898 344.96 631.952 340.367 632.043Z" fill="white"/>
<path d="M377.649 632.043V630.343C382.516 629.948 385.783 628.915 387.449 627.243C389.116 625.571 389.949 622.32 389.949 617.49V580.362C389.949 576.029 389.169 573.057 387.608 571.446C386.048 569.835 383.064 568.769 378.658 568.246V566.546C383.921 566.486 389.521 566.402 395.458 566.293C401.396 566.184 404.762 566.131 405.558 566.133C419.266 566.133 430.007 569.116 437.779 575.083C445.552 581.05 449.435 589.219 449.429 599.59C449.429 609.749 445.719 617.743 438.299 623.571C430.879 629.399 420.652 632.314 407.616 632.316C405.106 632.316 400.478 632.277 393.731 632.2C386.985 632.123 381.624 632.07 377.649 632.043ZM398.992 614.831C398.992 620.921 399.971 624.968 401.929 626.971C403.887 628.974 407.544 629.977 412.899 629.978C416.314 630.078 419.708 629.417 422.836 628.044C425.963 626.67 428.746 624.619 430.983 622.037C435.665 616.744 438.006 609.828 438.006 601.291C438.006 590.98 434.632 582.902 427.884 577.057C421.136 571.212 411.779 568.289 399.813 568.29H398.987L398.992 614.831Z" fill="white"/>
<path d="M455.41 598.95C455.41 588.761 458.646 580.622 465.117 574.532C471.588 568.442 480.225 565.398 491.027 565.399C501.644 565.399 510.144 568.543 516.527 574.83C522.91 581.117 526.1 589.479 526.097 599.914C526.097 609.951 522.846 618.022 516.343 624.125C509.84 630.228 501.219 633.281 490.48 633.282C479.862 633.282 471.362 630.161 464.98 623.919C458.598 617.677 455.408 609.354 455.41 598.95ZM466.61 597.619C466.61 607.286 468.936 615.173 473.586 621.28C478.237 627.387 484.173 630.44 491.395 630.437C494.688 630.536 497.958 629.85 500.934 628.438C503.911 627.026 506.509 624.926 508.515 622.313C512.83 616.897 514.987 609.676 514.987 600.649C515.001 596.743 514.491 592.853 513.472 589.082C512.566 585.614 511.11 582.313 509.158 579.306C507.021 575.879 504.123 572.989 500.69 570.861C496.19 568.359 490.95 567.526 485.896 568.509C480.841 569.491 476.295 572.226 473.059 576.231C468.759 581.647 466.608 588.776 466.609 597.619H466.61Z" fill="white"/>
<path d="M525.876 632.043L525.83 630.343C530.664 630.099 533.96 628.52 535.72 625.607C537.479 622.694 538.359 616.676 538.36 607.553V589.524C538.36 588.7 538.375 587.602 538.406 586.23C538.436 584.858 538.452 583.897 538.452 583.346C538.543 581.022 538.233 578.7 537.534 576.482C536.878 574.802 535.841 573.298 534.504 572.088C533.249 570.952 531.793 570.06 530.212 569.457C528.424 568.775 526.545 568.366 524.636 568.244V566.544C525.646 566.544 527.115 566.575 529.043 566.636C530.971 566.697 532.378 566.728 533.265 566.728C534.183 566.728 535.514 566.697 537.258 566.636C539.002 566.575 540.272 566.544 541.068 566.544L588.068 616.797V595.153C588.068 587.037 587.846 581.561 587.402 578.724C587.178 576.449 586.364 574.272 585.039 572.409C583.979 571.11 582.581 570.128 581 569.571C578.915 568.829 576.736 568.382 574.528 568.244V566.544C576.18 566.606 577.954 566.652 579.852 566.682C581.749 566.712 584.518 566.727 588.16 566.728C591.77 566.728 594.439 566.713 596.169 566.682C597.898 566.651 599.481 566.605 600.919 566.544V568.244H600.185C596.851 568.244 594.518 569.922 593.185 573.279C591.851 576.636 591.185 582.874 591.185 591.995V612.039C591.185 616.706 591.223 620.844 591.3 624.455C591.376 628.066 591.476 631.406 591.6 634.476H591.049C589.151 632.28 587.094 629.915 584.876 627.381L581.176 623.16L541.428 581.104V599.638C541.428 608.761 541.603 614.901 541.955 618.058C542.306 621.215 542.911 623.481 543.769 624.858C544.709 626.294 546.049 627.424 547.624 628.107C550.031 629.153 552.56 629.892 555.152 630.307V632.051H554.876C548.419 631.929 543.6 631.868 540.418 631.868C538.642 631.868 536.73 631.883 534.681 631.913L525.876 632.043Z" fill="white"/>
<path d="M499.804 22.1331C498.686 23.6331 501.774 27.8221 506.698 31.4891C511.622 35.1561 516.52 36.9081 517.639 35.4061C518.758 33.9041 515.669 29.7161 510.746 26.0501C505.823 22.3841 500.922 20.6321 499.804 22.1331Z" fill="white"/>
<path d="M264.239 173.724L257.014 175.346L250.793 177.624L245.213 180.222L240.29 183.158L236.351 186.737L232.743 190.637L229.795 194.535L227.173 199.092L225.202 203.969L223.561 208.859L222.584 214.061L221.929 219.259L221.593 225.117L221.268 230.652L221.593 236.508L221.929 242.361L222.904 254.398L224.55 266.108L226.183 277.498L227.173 288.554L227.494 293.757L227.824 298.967L227.494 303.521L227.173 308.076L226.513 312.3L225.527 316.199L223.896 319.456L221.929 322.709L220.283 321.731L218.311 320.431L216.349 317.836L214.043 314.9L213.066 312.622L212.081 310.344L211.42 307.744L210.77 305.141L210.109 301.886L209.789 298.31V294.409V290.175L205.84 290.832L203.879 291.473L202.243 292.132L200.931 292.79L199.62 293.757L198.629 295.065L197.974 296.031L196.663 298.967L196.002 301.886L195.686 305.141L196.337 308.722L196.993 312.3L198.308 315.878L199.94 319.456L201.587 323.355L203.879 326.612L206.176 330.192L208.478 333.122L211.099 335.722L219.948 332.469L227.494 328.887L230.772 327.267L233.399 325.312L236.031 323.355L238.323 321.41L240.29 319.456L242.256 317.177L243.567 315.233L244.878 312.955L245.869 310.679L246.525 308.402L247.835 303.521L248.171 298.642L247.835 293.11L247.51 287.576L246.525 281.398L244.558 268.385L243.567 261.228L242.907 253.752L242.591 251.474L241.93 244.964L241.596 235.205L241.93 229.673L242.256 223.492L242.907 216.982L244.218 210.484L245.869 203.648L248.171 197.15L251.119 190.637L252.76 187.716L254.727 184.78L256.698 181.858L258.985 178.923L261.618 176.324L264.239 173.724Z" fill="white"/>
<path d="M317.058 341.257V336.701L317.383 332.469L318.689 324.334L320.327 316.531L322.628 309.701L327.232 296.684L329.509 290.507L331.485 284.655L332.796 278.465L333.117 275.542V272.617V269.684L332.796 266.428L332.476 263.186L331.485 259.929L330.174 256.673L328.864 253.094L326.886 249.517L324.604 245.942L321.958 242.04L319.01 238.128L315.403 233.905L311.143 229.352L302.286 236.508L292.768 243.66L281.623 251.474L281.293 240.083L281.623 228.374L282.278 214.717L282.599 207.881L283.59 201.37L284.902 195.193L286.212 189.661L288.179 184.78L289.17 182.837L290.48 181.2L291.792 179.902L293.104 178.602L294.74 177.944H296.386L297.697 179.26L299.338 180.559L301.296 181.858L303.597 183.158L305.898 184.134L308.521 184.78L311.469 185.1L314.091 185.433L317.058 185.1L320.001 184.459L322.949 183.158L326.241 181.526L329.184 179.26L332.126 176.324L335.098 172.424L337.721 168.19L335.418 169.168L333.117 170.147L330.815 170.467L328.543 171.125H323.939L319.68 170.788L315.083 169.489L310.823 167.869L306.54 165.914L302.286 163.636L297.361 165.589L293.104 167.869L288.835 170.467L284.902 173.403L281.623 176.645L278.345 180.222L275.724 184.459L273.101 188.694L271.12 193.568L269.152 198.77L267.842 204.627L266.861 210.484L265.875 216.982L265.55 224.15V231.627L265.875 239.427L268.172 272.943L268.832 290.507L269.483 307.744V315.878V323.688L268.832 331.17L268.172 337.68L267.187 343.858L265.875 349.059L264.238 353.292L263.253 354.912L262.276 356.548L258.008 353.933L254.391 351.657L250.792 350.038L247.834 348.734L245.212 347.756L242.59 347.114L240.289 346.781H238.322L236.03 347.114L234.383 347.756L230.771 349.059L223.239 352.634L227.172 353.933L230.771 355.237L233.728 357.194L236.35 359.146L240.619 363.046L242.59 364.671L244.557 366.302L246.524 367.604L248.486 368.245L251.118 368.58L254.065 367.925L257.348 366.948L260.965 364.671L265.55 361.747L270.794 357.515L272.765 355.57L274.732 353.612L276.378 351.657L278.01 349.392L280.633 344.501L282.599 339.3L283.911 333.768L284.902 328.246L285.562 322.389V316.531V311L285.235 305.466L284.566 295.065L283.255 285.954L282.599 279.441L281.943 260.25L283.59 258.631L285.235 256.673L287.523 255.374L289.495 254.072L291.792 253.094L294.084 252.773L296.386 253.094L298.682 253.752L300.654 255.374L302.956 257.652L304.588 260.908L306.54 265.128L307.88 270.342L309.163 276.841L310.158 284.655L310.823 293.757L311.143 299.946V306.118L310.502 316.199L309.832 324.667L308.521 332.143L307.88 338.321L307.209 344.501V347.756L307.536 350.691L307.88 353.933L308.521 357.515L310.502 365.004L311.469 368.58L312.781 371.502L314.091 374.105L315.747 376.381L317.058 378.338L319.01 379.958L320.647 381.261L322.628 381.915L324.604 382.24H326.561L328.864 381.594L331.16 380.615L333.787 378.991L336.41 376.713L339.358 374.105L340.669 372.16L341.334 371.502V370.523V369.882L340.99 369.224L340.022 368.245L338.367 367.604L333.442 365.65L330.815 364.345L327.873 363.046L325.25 361.089L322.628 358.493L320.327 355.57L319.335 353.612L318.369 351.657L317.704 349.392L317.383 347.114L317.058 344.178V341.257Z" fill="white"/>
<path d="M387.583 267.086H386.913L381.027 262.53L377.735 259.609L374.787 256.353L371.5 253.094L368.551 249.517L365.929 245.617L363.627 241.708L361.675 237.808L360.34 233.905L359.374 229.993V226.096L359.694 224.15L360.019 222.196L360.685 220.559L361.675 218.614L362.987 216.659L364.293 215.037L365.929 213.403L367.886 211.783L372.491 214.061L377.088 217.315L381.668 221.217L386.272 225.77L390.526 230.972L392.506 233.905L394.142 236.829L395.775 240.083L397.086 243.339L398.398 246.583L399.383 250.175L400.373 248.217L401.364 246.263L402.331 242.361L402.675 238.128V233.905L401.689 229.993L400.373 225.77L398.398 221.537L395.775 217.635L392.827 213.74L389.885 209.825L386.272 206.251L382.338 203.002L378.4 199.748L374.123 196.813L369.867 194.214L365.609 191.936L361.675 197.47L358.382 202.67L355.435 207.548L353.134 212.103L350.836 216.659L349.204 220.896L347.544 225.117L346.578 229.027L345.913 232.927L345.267 236.508L344.922 239.762V243.007L345.267 245.942L345.592 248.859L346.233 251.795L347.224 254.398L349.204 258.951L351.828 263.186L354.45 267.086L357.393 270.342L360.685 272.943L363.307 275.542L367.886 279.12L372.169 283.018L375.777 286.93L378.725 291.153L381.348 295.065L383.304 299.287L385.285 303.521L386.592 307.744L387.583 311.976L388.223 315.878V319.778V323.355L387.903 326.934L387.257 330.192L386.272 333.122L385.285 335.722L383.969 338.001L382.338 339.957L380.682 341.577L378.725 342.556L376.744 342.879H374.787L372.491 342.223L370.188 341.257L367.886 339.3L365.609 337.022L363.307 333.768L361.009 329.865L358.709 324.991L356.402 319.456L354.125 313.275L352.148 305.798L350.195 297.663L348.879 302.224L347.894 307.098L347.544 312.3V317.836L348.215 323.355L349.204 328.887L350.516 334.423L352.148 339.625L354.125 344.501L356.402 348.734L359.03 352.634L361.675 355.89L362.987 356.868L364.619 358.168L365.929 358.826L367.566 359.469L369.198 359.79H370.853L372.491 359.469L374.123 358.826L377.088 357.194L380.357 354.912L384.295 351.993L388.223 348.413L392.163 344.178L396.1 339.3L399.709 333.768L403 327.911L404.312 324.667L405.302 321.41L406.268 318.156L406.934 314.579L407.259 311V307.423L406.934 303.841L406.613 299.946L405.624 296.031L404.312 292.132L402.675 287.897L400.7 283.997L398.072 279.774L395.133 275.542L391.516 271.309L387.583 267.086Z" fill="white"/>
<path d="M259.892 487.652V486.821C261.139 486.79 262.374 486.567 263.554 486.159C264.413 485.869 265.159 485.317 265.688 484.58C266.086 483.735 266.3 482.814 266.317 481.88C266.437 480.543 266.497 478.367 266.497 475.351V465.673C266.536 463.87 266.457 462.066 266.261 460.273C266.188 459.474 265.905 458.709 265.441 458.055C264.876 457.495 264.169 457.1 263.397 456.912C262.258 456.574 261.083 456.373 259.897 456.312V455.435C260.481 455.45 261.125 455.461 261.829 455.469C262.533 455.477 263.573 455.481 264.951 455.48C266.643 455.48 267.905 455.476 268.737 455.469C269.568 455.462 270.328 455.443 271.017 455.412C270.911 456.991 270.833 458.378 270.781 459.573C270.729 460.768 270.703 461.734 270.703 462.473V478.019C270.654 479.763 270.741 481.508 270.961 483.239C271.06 483.988 271.367 484.694 271.848 485.277C272.439 485.816 273.158 486.195 273.938 486.377C275.07 486.661 276.231 486.811 277.398 486.826V487.657C275.016 487.612 273.226 487.586 272.028 487.577C270.83 487.568 269.714 487.565 268.681 487.567C267.647 487.567 266.531 487.57 265.333 487.577C264.134 487.584 262.32 487.609 259.892 487.652Z" fill="white"/>
<path d="M282.604 488.797L282.155 487.831C285.534 486.241 288.627 484.104 291.31 481.507C293.545 479.281 295.226 476.561 296.218 473.566C295.159 474.198 294.028 474.699 292.849 475.059C291.778 475.377 290.666 475.54 289.549 475.542C288.278 475.605 287.007 475.4 285.82 474.94C284.634 474.481 283.556 473.777 282.658 472.875C281.76 471.973 281.062 470.892 280.608 469.703C280.154 468.514 279.955 467.243 280.024 465.972C279.973 464.514 280.225 463.061 280.764 461.706C281.303 460.35 282.118 459.121 283.157 458.097C284.225 457.071 285.489 456.272 286.873 455.745C288.257 455.218 289.732 454.975 291.212 455.03C292.716 454.948 294.222 455.178 295.633 455.706C297.044 456.234 298.331 457.048 299.412 458.097C301.403 460.142 302.399 462.954 302.4 466.533C302.411 471.464 300.553 476.217 297.2 479.833C293.729 483.742 288.864 486.73 282.604 488.797ZM296.69 472.015C296.926 471.075 297.11 470.122 297.241 469.162C297.366 468.246 297.43 467.323 297.432 466.399C297.563 463.819 296.963 461.254 295.702 458.999C295.24 458.166 294.562 457.473 293.74 456.993C292.918 456.513 291.981 456.263 291.029 456.27C290.134 456.245 289.247 456.438 288.443 456.831C287.639 457.224 286.942 457.807 286.412 458.528C285.201 460.433 284.596 462.661 284.678 464.918C284.761 467.174 285.526 469.352 286.873 471.164C287.569 471.987 288.441 472.642 289.425 473.082C290.409 473.522 291.479 473.734 292.556 473.703C293.325 473.714 294.089 473.572 294.803 473.287C295.508 472.988 296.149 472.557 296.69 472.015Z" fill="white"/>
<path d="M304.44 487.741L304.125 487.09C308.516 483.539 312.488 479.499 315.964 475.048C318.466 471.604 319.717 468.489 319.716 465.702C319.822 463.903 319.272 462.126 318.167 460.702C317.634 460.097 316.971 459.62 316.228 459.307C315.485 458.994 314.681 458.853 313.876 458.894C312.511 458.911 311.174 459.287 310 459.984C308.567 460.84 307.294 461.938 306.237 463.23L305.537 462.668C306.599 460.45 308.141 458.497 310.052 456.95C311.687 455.734 313.677 455.09 315.714 455.119C316.854 455.094 317.985 455.314 319.033 455.762C320.081 456.211 321.021 456.878 321.79 457.719C323.425 459.474 324.301 461.803 324.228 464.2C324.228 466.972 323.049 469.949 320.69 473.131C317.458 477.178 313.734 480.807 309.603 483.931L317.781 483.841C318.938 483.873 320.095 483.806 321.24 483.641C321.826 483.55 322.381 483.319 322.858 482.967C323.424 482.451 323.932 481.875 324.374 481.249C325.018 480.347 325.614 479.412 326.161 478.449L326.947 478.83L323.487 487.66C321.42 487.629 319.81 487.606 318.657 487.592C317.504 487.578 316.433 487.571 315.445 487.57C313.422 487.57 311.505 487.585 309.693 487.615C307.881 487.645 306.13 487.687 304.44 487.741Z" fill="white"/>
<path d="M330.965 488.797L330.516 487.831C333.895 486.242 336.988 484.105 339.67 481.507C341.906 479.281 343.587 476.561 344.58 473.566C343.521 474.198 342.389 474.699 341.209 475.059C340.138 475.378 339.027 475.54 337.909 475.542C336.638 475.604 335.368 475.399 334.181 474.94C332.994 474.48 331.916 473.777 331.018 472.875C330.12 471.973 329.422 470.892 328.968 469.703C328.513 468.514 328.314 467.243 328.382 465.972C328.331 464.514 328.583 463.061 329.123 461.705C329.663 460.35 330.478 459.121 331.517 458.097C332.585 457.072 333.849 456.272 335.232 455.745C336.616 455.218 338.092 454.975 339.571 455.03C341.076 454.948 342.581 455.178 343.992 455.706C345.403 456.234 346.69 457.048 347.771 458.097C349.763 460.142 350.758 462.954 350.758 466.533C350.769 471.464 348.911 476.217 345.558 479.833C342.09 483.742 337.225 486.73 330.965 488.797ZM345.049 472.015C345.285 471.075 345.469 470.122 345.6 469.162C345.725 468.246 345.789 467.323 345.791 466.399C345.922 463.819 345.323 461.254 344.061 458.999C343.599 458.166 342.922 457.473 342.099 456.993C341.277 456.513 340.34 456.263 339.388 456.27C338.493 456.245 337.606 456.438 336.802 456.831C335.998 457.224 335.301 457.807 334.771 458.528C333.56 460.433 332.955 462.661 333.038 464.918C333.12 467.174 333.885 469.352 335.232 471.164C335.928 471.987 336.8 472.642 337.784 473.082C338.768 473.522 339.839 473.734 340.916 473.703C341.685 473.714 342.449 473.572 343.163 473.287C343.868 472.988 344.508 472.556 345.049 472.015Z" fill="white"/>
<path d="M211.363 472.911H244.594" stroke="white"/>
<path d="M368.106 472.911H401.337" stroke="white"/>
<path d="M211.869 445.599L211.852 444.952C213.646 444.836 214.84 444.469 215.434 443.852C216.028 443.235 216.325 441.797 216.325 439.54V426.85C216.325 424.564 216.039 423.101 215.469 422.462C214.51 421.672 213.303 421.247 212.061 421.262V420.616C213.191 420.616 214.757 420.628 216.761 420.651C218.764 420.674 220.203 420.686 221.077 420.685C222.579 420.685 224.119 420.679 225.698 420.668C227.276 420.657 229.102 420.639 231.176 420.616L230.635 426.451H230.11C230.043 424.612 229.545 423.342 228.616 422.643C227.686 421.944 225.89 421.594 223.226 421.594H219.696V432.462H223.802C225.131 432.564 226.459 432.26 227.612 431.589C228.032 431.253 228.369 430.824 228.597 430.336C228.824 429.848 228.935 429.314 228.922 428.776L229.499 428.793C229.44 429.935 229.396 431.01 229.368 432.017C229.339 433.024 229.324 434 229.324 434.944C229.324 435.737 229.327 436.337 229.333 436.744C229.333 437.153 229.341 437.531 229.341 437.88H228.817C228.87 437.333 228.795 436.782 228.598 436.269C228.401 435.757 228.087 435.297 227.682 434.927C226.551 434.234 225.228 433.922 223.907 434.036H219.696V439.376C219.696 441.555 220.045 442.981 220.745 443.654C221.444 444.327 222.894 444.761 225.096 444.954V445.601H224.886C221.926 445.554 219.73 445.53 218.298 445.531C217.506 445.531 216.658 445.537 215.756 445.548L211.869 445.599Z" fill="white"/>
<path d="M233.175 433C233.097 431.276 233.386 429.555 234.024 427.952C234.662 426.348 235.634 424.899 236.875 423.7C239.338 421.382 242.626 420.223 246.739 420.223C248.516 420.138 250.291 420.413 251.958 421.03C253.626 421.647 255.152 422.594 256.445 423.814C257.676 425.07 258.635 426.566 259.261 428.209C259.888 429.852 260.17 431.607 260.088 433.363C260.161 435.075 259.867 436.783 259.227 438.372C258.586 439.962 257.614 441.396 256.375 442.58C253.9 444.904 250.618 446.066 246.529 446.067C244.755 446.152 242.982 445.88 241.315 445.268C239.647 444.656 238.12 443.715 236.822 442.502C235.592 441.255 234.633 439.768 234.005 438.132C233.378 436.497 233.095 434.75 233.175 433ZM237.439 432.493C237.297 435.708 238.232 438.878 240.095 441.501C240.857 442.589 241.873 443.476 243.054 444.083C244.235 444.691 245.547 445.002 246.875 444.988C248.129 445.025 249.373 444.764 250.506 444.226C251.639 443.689 252.629 442.89 253.392 441.895C255.137 439.51 256.007 436.598 255.856 433.647C255.861 432.161 255.667 430.681 255.279 429.247C254.935 427.927 254.38 426.671 253.637 425.526C252.824 424.221 251.721 423.121 250.413 422.311C248.7 421.358 246.706 421.041 244.781 421.415C242.857 421.789 241.126 422.83 239.894 424.355C238.167 426.705 237.3 429.577 237.439 432.49V432.493Z" fill="white"/>
<path d="M264.708 436.012V426.828C264.747 425.771 264.68 424.712 264.508 423.668C264.413 423.185 264.157 422.748 263.783 422.428C263.334 422.081 262.826 421.817 262.283 421.651C261.63 421.456 260.955 421.342 260.274 421.311V420.664C261.031 420.688 261.841 420.705 262.703 420.716C263.566 420.727 264.871 420.733 266.617 420.734C268.387 420.734 269.712 420.728 270.592 420.716C271.472 420.704 272.291 420.687 273.047 420.664L273.065 421.311C271.109 421.368 269.789 421.758 269.107 422.481C268.425 423.204 268.085 424.641 268.085 426.793V435.663C268.043 437.019 268.175 438.374 268.478 439.696C268.712 440.591 269.163 441.413 269.793 442.09C270.552 442.878 271.486 443.477 272.519 443.836C273.714 444.258 274.974 444.466 276.241 444.448C277.711 444.506 279.17 444.185 280.478 443.514C281.648 442.814 282.568 441.765 283.108 440.514C283.498 439.566 283.731 438.56 283.798 437.537C283.932 436.239 283.998 434.17 283.998 431.329C284.036 429.4 283.962 427.471 283.779 425.551C283.71 424.703 283.457 423.881 283.037 423.141C282.608 422.527 282.006 422.056 281.307 421.787C280.406 421.461 279.453 421.299 278.494 421.308V420.661C279.134 420.685 279.816 420.702 280.538 420.713C281.261 420.724 282.356 420.73 283.823 420.731C285.303 420.731 286.406 420.725 287.134 420.713C287.862 420.701 288.535 420.684 289.152 420.661V421.308H289.083C288.492 421.253 287.898 421.378 287.38 421.668C286.862 421.958 286.445 422.399 286.183 422.932C285.659 424.014 285.397 426.744 285.397 431.121C285.397 431.493 285.391 432.052 285.379 432.797C285.333 436.848 284.996 439.601 284.366 441.056C283.663 442.713 282.393 444.065 280.784 444.872C278.845 445.798 276.711 446.244 274.563 446.172C272.829 446.215 271.101 445.944 269.463 445.372C268.158 444.913 267.016 444.082 266.178 442.98C265.641 442.229 265.258 441.38 265.051 440.48C264.778 439.007 264.663 437.509 264.708 436.012Z" fill="white"/>
<path d="M290.862 445.599L290.844 444.952C292.685 444.86 293.94 444.26 294.61 443.152C295.279 442.044 295.612 439.753 295.61 436.278V429.413C295.61 429.1 295.616 428.682 295.628 428.159C295.64 427.637 295.645 427.271 295.645 427.059C295.68 426.174 295.562 425.29 295.296 424.445C295.046 423.806 294.651 423.234 294.143 422.773C293.665 422.341 293.111 422.002 292.509 421.773C291.828 421.513 291.113 421.358 290.386 421.312V420.665C290.77 420.665 291.33 420.677 292.063 420.699C292.796 420.721 293.333 420.735 293.671 420.735C294.009 420.735 294.527 420.723 295.191 420.699C295.855 420.675 296.338 420.665 296.642 420.665L314.535 439.796V431.556C314.583 429.468 314.498 427.379 314.281 425.301C314.195 424.436 313.885 423.609 313.381 422.901C312.978 422.406 312.446 422.032 311.844 421.821C311.05 421.54 310.22 421.371 309.38 421.321V420.674C310.01 420.698 310.686 420.715 311.408 420.726C312.13 420.737 313.184 420.743 314.571 420.744C315.945 420.744 316.961 420.738 317.62 420.726C318.278 420.714 318.881 420.697 319.428 420.674V421.321H319.15C318.557 421.303 317.974 421.481 317.492 421.827C317.01 422.174 316.656 422.669 316.484 423.237C315.978 424.514 315.724 426.89 315.724 430.363V437.994C315.724 439.771 315.738 441.346 315.768 442.72C315.797 444.094 315.835 445.366 315.882 446.535H315.671C314.949 445.7 314.166 444.8 313.322 443.835C312.477 442.87 312.008 442.334 311.916 442.229L296.783 426.218V433.274C296.783 436.747 296.849 439.084 296.983 440.287C297.031 441.188 297.266 442.069 297.673 442.874C298.03 443.421 298.541 443.851 299.141 444.111C300.057 444.508 301.02 444.789 302.007 444.947V445.611H301.902C299.444 445.564 297.61 445.54 296.402 445.541C295.726 445.541 294.997 445.547 294.217 445.558C293.436 445.569 292.318 445.583 290.862 445.599Z" fill="white"/>
<path d="M321.185 445.599V444.952C323.037 444.802 324.281 444.409 324.916 443.773C325.55 443.137 325.868 441.899 325.869 440.06V425.923C326 424.72 325.682 423.512 324.977 422.529C324.003 421.765 322.807 421.337 321.57 421.311V420.664C323.574 420.641 325.705 420.607 327.964 420.564C330.222 420.521 331.504 420.5 331.809 420.503C337.027 420.503 341.116 421.639 344.076 423.91C345.515 424.99 346.671 426.404 347.444 428.029C348.217 429.654 348.584 431.443 348.514 433.241C348.587 434.99 348.24 436.732 347.503 438.32C346.766 439.908 345.66 441.297 344.277 442.371C341.451 444.59 337.557 445.7 332.595 445.699C331.64 445.699 329.878 445.685 327.31 445.656C324.741 445.627 322.699 445.608 321.185 445.599ZM329.31 439.046C329.31 441.364 329.683 442.905 330.429 443.668C331.175 444.431 332.567 444.813 334.605 444.813C335.905 444.851 337.197 444.6 338.388 444.077C339.579 443.554 340.638 442.772 341.49 441.789C343.41 439.28 344.349 436.156 344.132 433.004C343.915 429.852 342.556 426.887 340.31 424.665C337.742 422.441 334.18 421.329 329.626 421.328H329.31V439.046Z" fill="white"/>
<path d="M348.926 445.599V444.952C350.28 444.917 351.595 444.496 352.718 443.738C353.335 443.159 353.644 441.921 353.644 440.025V426.308C353.644 424.302 353.338 422.976 352.727 422.331C351.761 421.562 350.543 421.179 349.311 421.258V420.612C350.475 420.64 351.715 420.658 353.033 420.667C354.35 420.676 356.26 420.68 358.764 420.681C361.688 420.681 363.828 420.677 365.185 420.668C366.541 420.659 367.762 420.646 368.846 420.629C368.74 421.421 368.65 422.271 368.575 423.18C368.499 424.089 368.427 425.131 368.357 426.308H367.815C367.84 425.628 367.72 424.95 367.464 424.319C367.208 423.688 366.822 423.118 366.33 422.647C365.456 421.966 363.913 421.625 361.7 421.625H357.016V431.935H360.616C362.019 432.054 363.428 431.794 364.696 431.183C365.113 430.855 365.457 430.442 365.705 429.973C365.953 429.503 366.1 428.987 366.137 428.457H366.714C366.714 429.11 366.687 430.135 366.635 431.532C366.582 432.929 366.556 434.019 366.557 434.8V436.862H366.033C366.031 436.353 365.91 435.851 365.68 435.398C365.449 434.944 365.115 434.55 364.705 434.249C363.442 433.651 362.044 433.395 360.651 433.507H357.016V439.867C357.016 441.813 357.412 443.095 358.205 443.712C358.997 444.329 360.541 444.638 362.835 444.638C364.626 444.745 366.395 444.192 367.806 443.082C369.13 441.794 369.977 440.093 370.206 438.26L370.783 438.329C370.718 439.628 370.569 440.921 370.337 442.2C370.123 443.379 369.816 444.539 369.419 445.669C367.731 445.622 365.884 445.587 363.88 445.564C361.875 445.541 359.691 445.53 357.328 445.529C355.128 445.529 353.438 445.535 352.26 445.546C351.081 445.557 349.97 445.575 348.926 445.599Z" fill="white"/>
<path d="M372.354 445.599V444.952C374.208 444.802 375.451 444.409 376.085 443.773C376.718 443.137 377.036 441.899 377.039 440.06V425.923C377.169 424.72 376.852 423.512 376.147 422.529C375.173 421.765 373.977 421.337 372.74 421.311V420.664C374.74 420.641 376.873 420.607 379.139 420.564C381.406 420.521 382.688 420.5 382.984 420.503C388.203 420.503 392.292 421.639 395.251 423.91C396.69 424.99 397.846 426.404 398.619 428.029C399.392 429.654 399.759 431.443 399.689 433.241C399.761 434.99 399.415 436.732 398.678 438.32C397.941 439.908 396.835 441.297 395.452 442.371C392.626 444.59 388.732 445.7 383.77 445.699C382.814 445.699 381.052 445.685 378.484 445.656C375.916 445.627 373.873 445.608 372.354 445.599ZM380.479 439.046C380.479 441.364 380.853 442.905 381.599 443.668C382.345 444.431 383.737 444.813 385.775 444.813C387.075 444.851 388.367 444.599 389.558 444.076C390.748 443.553 391.808 442.772 392.66 441.789C394.58 439.28 395.519 436.156 395.302 433.004C395.085 429.852 393.726 426.887 391.479 424.665C388.911 422.441 385.35 421.329 380.794 421.328H380.479V439.046Z" fill="white"/>
<path d="M222.849 373.89C222.333 373.411 222.049 373.133 221.892 372.971C221.748 372.864 221.577 372.735 221.369 372.578C219.991 371.532 218.669 370.507 217.394 369.378L87.7753 528.09L87.8753 528.19C87.0926 528.898 86.477 529.77 86.073 530.745C85.6689 531.72 85.4866 532.772 85.5391 533.826C85.5916 534.879 85.8777 535.908 86.3767 536.838C86.8757 537.767 87.575 538.575 88.4242 539.201C89.2734 539.827 90.2511 540.257 91.2867 540.458C92.3223 540.66 93.3898 540.63 94.412 540.368C95.4342 540.107 96.3856 539.622 97.1973 538.948C98.009 538.274 98.6607 537.428 99.1053 536.471L229.661 377.243C227.11 376.821 224.74 375.655 222.849 373.89Z" fill="white"/>
<path d="M216.849 176.29C218.663 174.535 220.957 173.359 223.44 172.91L101.358 23.4241L90.3584 32.9241L213.419 183.008C213.801 180.455 215.005 178.096 216.849 176.29Z" fill="white"/>
<path d="M387.45 177.29C389.246 179.022 390.438 181.285 390.85 183.746L514.106 33.4241L503.106 23.9241L380.639 173.883C383.197 174.317 385.568 175.503 387.45 177.29Z" fill="white"/>
<path d="M515.426 528.19L515.526 528.09L386.426 370.006C386.177 370.832 385.834 371.627 385.404 372.374C384.489 374.013 383.187 375.404 381.613 376.426C380.038 377.448 378.238 378.07 376.368 378.238C375.912 378.472 375.441 378.675 374.957 378.844L504.197 536.47C504.641 537.428 505.293 538.275 506.104 538.95C506.916 539.625 507.868 540.111 508.891 540.373C509.914 540.635 510.982 540.666 512.018 540.464C513.054 540.263 514.033 539.833 514.883 539.206C515.732 538.579 516.432 537.772 516.931 536.841C517.43 535.911 517.716 534.881 517.768 533.827C517.82 532.772 517.637 531.719 517.232 530.744C516.827 529.769 516.21 528.897 515.426 528.19Z" fill="white"/>
</svg>
